<?xml version="1.0" encoding="UTF-8"?>
<svg version="1.1" xmlns="http://www.w3.org/2000/svg" width="134" height="122">
<path d="M0 0 C44.22 0 88.44 0 134 0 C134 40.26 134 80.52 134 122 C89.78 122 45.56 122 0 122 C0 81.74 0 41.48 0 0 Z " fill="#4096B8" transform="translate(0,0)"/>
<path d="M0 0 C0.99 1.32 1.98 2.64 3 4 C3.62543701 3.77368896 4.25087402 3.54737793 4.89526367 3.31420898 C11.6844081 1.32984766 11.6844081 1.32984766 15.20947266 3.12548828 C17.40395273 4.98828761 19.3551746 6.95182822 21.3125 9.0625 C22.03453613 9.79170654 22.75657227 10.52091309 23.50048828 11.2722168 C24.97633284 12.7674247 26.4396584 14.27509409 27.89013672 15.79492188 C30.43774971 18.45750467 33.05324567 21.04492807 35.67651367 23.63256836 C38.13868838 26.06784566 40.56814144 28.53446955 43 31 C43.99933787 32.00066169 44.99918059 33.00082008 46 34 C38.88469379 36.99396284 31.70596386 39.41830528 24.3125 41.625 C12.42390519 45.22257698 0.60206654 49.00328525 -11.20776367 52.85009766 C-11.85427887 53.06014435 -12.50079407 53.27019104 -13.16690063 53.48660278 C-14.92948652 54.05940937 -16.69144817 54.63413579 -18.45336914 55.20898438 C-21 56 -21 56 -22 56 C-21.73516004 51.66233011 -21.46855481 47.32477306 -21.20043945 42.98730469 C-21.10980618 41.51728114 -21.01962312 40.04722975 -20.92993164 38.57714844 C-20.38851266 29.70876611 -19.78848777 20.85058952 -19 12 C-16.69 11.01 -14.38 10.02 -12 9 C-12.33 7.68 -12.66 6.36 -13 5 C-11.3962669 4.35309078 -9.79199694 3.70751236 -8.1875 3.0625 C-6.84751953 2.52302734 -6.84751953 2.52302734 -5.48046875 1.97265625 C-3.6729091 1.26386514 -1.84192591 0.6139753 0 0 Z " fill="#1B474F" transform="translate(64,36)"/>
<path d="M0 0 C5.63524278 -0.94138627 11.48314032 -1.90685953 17 0 C21.31923875 3.70168467 23.72086441 9.0176933 26.08886719 14.09521484 C27.06088369 16.20836788 27.06088369 16.20836788 28.7578125 18.89453125 C30 21 30 21 30 23 C28.06643218 23.69848264 26.12797702 24.38344814 24.1875 25.0625 C23.10855469 25.44535156 22.02960937 25.82820313 20.91796875 26.22265625 C18 27 18 27 15 26 C13.2824707 23.60742188 13.2824707 23.60742188 11.42578125 20.46875 C10.75869141 19.34855469 10.09160156 18.22835938 9.40429688 17.07421875 C9.06132568 16.48817871 8.71835449 15.90213867 8.36499023 15.29833984 C7.31380643 13.50223224 6.25094482 11.71348706 5.18554688 9.92578125 C0 1.16729683 0 1.16729683 0 0 Z " fill="#1B464D" transform="translate(32,11)"/>
<path d="M0 0 C0.33 0 0.66 0 1 0 C0.73599714 3.96542283 0.46936451 7.93065981 0.20043945 11.89575195 C0.06522213 13.89720764 -0.06799544 15.8987981 -0.20117188 17.90039062 C-0.65840137 24.62335766 -1.18493932 31.31062808 -2 38 C-2.98742188 37.43410156 -3.97484375 36.86820313 -4.9921875 36.28515625 C-6.28644206 35.54424241 -7.58071379 34.80335855 -8.875 34.0625 C-9.52597656 33.68931641 -10.17695313 33.31613281 -10.84765625 32.93164062 C-14.38746834 30.89866922 -14.38746834 30.89866922 -18 29 C-17.3630128 25.34726824 -15.78855225 22.93112409 -13.69140625 19.90234375 C-13.02689453 18.93619141 -12.36238281 17.97003906 -11.67773438 16.97460938 C-10.97970703 15.97236328 -10.28167969 14.97011719 -9.5625 13.9375 C-8.86833984 12.93138672 -8.17417969 11.92527344 -7.45898438 10.88867188 C-6.17142755 9.02277393 -4.88139605 7.15857956 -3.58813477 5.29663086 C-2.37522997 3.54262696 -1.18291267 1.774369 0 0 Z " fill="#1B464D" transform="translate(41,52)"/>
<path d="M0 0 C5.89613547 0.4426811 9.96495799 3.03741479 14.875 6.0625 C15.65875 6.53494141 16.4425 7.00738281 17.25 7.49414062 C19.17198433 8.65436287 21.08822535 9.82305776 23 11 C22.67 12.32 22.34 13.64 22 15 C16.96811203 14.4266218 13.1287222 12.09364473 8.8125 9.625 C8.08869141 9.22539063 7.36488281 8.82578125 6.61914062 8.4140625 C5.92626953 8.0221875 5.23339844 7.6303125 4.51953125 7.2265625 C3.57750854 6.69409912 3.57750854 6.69409912 2.61645508 6.15087891 C1 5 1 5 -1 2 C-0.67 1.34 -0.34 0.68 0 0 Z " fill="#194349" transform="translate(66,92)"/>
<path d="M0 0 C5.71677364 -0.32692234 9.02895343 1.89510884 13.8125 4.75 C14.60076172 5.1934375 15.38902344 5.636875 16.20117188 6.09375 C17.31782227 6.75117187 17.31782227 6.75117187 18.45703125 7.421875 C19.13741455 7.81987305 19.81779785 8.21787109 20.51879883 8.62792969 C21.00759521 9.08071289 21.4963916 9.53349609 22 10 C22 11.32 22 12.64 22 14 C16.34880296 13.5097542 12.40295481 11.25848055 7.625 8.4375 C6.52091797 7.80038086 6.52091797 7.80038086 5.39453125 7.15039062 C3.59160301 6.10843859 1.79512947 5.05533146 0 4 C0 2.68 0 1.36 0 0 Z " fill="#194247" transform="translate(31,94)"/>
<path d="M0 0 C4.14032846 1.54385129 7.93553053 3.51028938 11.8125 5.625 C12.40998047 5.94984375 13.00746094 6.2746875 13.62304688 6.609375 C15.08337135 7.40379151 16.54187491 8.20155376 18 9 C17.67 10.65 17.34 12.3 17 14 C12.23448987 12.62394084 8.2751447 10.53221934 4.125 7.875 C3.53203125 7.50246094 2.9390625 7.12992187 2.328125 6.74609375 C0.8818657 5.83635 -0.55958046 4.91896202 -2 4 C-1.34 2.68 -0.68 1.36 0 0 Z " fill="#184348" transform="translate(92,90)"/>
<path d="M0 0 C4.3890815 0.51035831 7.33708062 1.52214277 11 4 C10.67 5.32 10.34 6.64 10 8 C5.48521602 7.46884894 2.65333143 5.63379708 -1 3 C-0.67 2.01 -0.34 1.02 0 0 Z " fill="#174044" transform="translate(106,84)"/>
<path d="M0 0 C1.98 0.495 1.98 0.495 4 1 C3.67 2.32 3.34 3.64 3 5 C1.68 4.67 0.36 4.34 -1 4 C-0.67 2.68 -0.34 1.36 0 0 Z " fill="#173E40" transform="translate(58,107)"/>
<path d="M0 0 C1.98 0.495 1.98 0.495 4 1 C3.67 2.32 3.34 3.64 3 5 C1.68 4.67 0.36 4.34 -1 4 C-0.67 2.68 -0.34 1.36 0 0 Z " fill="#163E40" transform="translate(98,80)"/>
<path d="M0 0 C0.33 0 0.66 0 1 0 C0.67 4.62 0.34 9.24 0 14 C-0.33 14 -0.66 14 -1 14 C-1.22226864 12.23086176 -1.42733873 10.45955629 -1.625 8.6875 C-1.74101563 7.70136719 -1.85703125 6.71523438 -1.9765625 5.69921875 C-2 3 -2 3 0 0 Z " fill="#174041" transform="translate(41,52)"/>
<path d="M0 0 C0.99 0 1.98 0 3 0 C2.34 3.96 1.68 7.92 1 12 C0.67 12 0.34 12 0 12 C0 8.04 0 4.08 0 0 Z " fill="#173E41" transform="translate(45,48)"/>
</svg>
